<svg viewBox="0 0 70 70" xmlns="http://www.w3.org/2000/svg"><path d="m35 0a35 35 0 1 1 -35 35 35 35 0 0 1 35-35z" fill="#fff"/><path d="m125.54 95.21a30 30 0 1 1 -29.955-30 30 30 0 0 1 29.955 30z" fill="#ffb100" transform="translate(-60.54 -60.325)"/><path d="m109.36 93.485a15.545 15.545 0 1 1 -15.5-15.545 15.545 15.545 0 0 1 15.5 15.545z" transform="translate(-58.815 -58.6)"/><g fill="#fff"><path d="m109.442 104.189a5.246 5.246 0 1 1 -5.3-5.189h.068a5.235 5.235 0 0 1 5.235 5.189z" transform="translate(-56.013 -55.746)"/><path d="m87.42 82.359a6.325 6.325 0 1 1 -1.84-4.494 6.325 6.325 0 0 1 1.84 4.494z" transform="translate(-59.289 -58.863)"/></g></svg>